<svg width="25" height="25" viewBox="0 0 25 25" fill="none" xmlns="http://www.w3.org/2000/svg">
<g clip-path="url(#clip0_252_596)">
<path d="M16.4041 15.8918C15.8354 15.8918 15.3728 15.4914 15.3728 14.9992C15.3728 14.507 15.8354 14.1066 16.4041 14.1066C16.9727 14.1066 17.4353 14.507 17.4353 14.9992C17.4353 15.2581 17.6452 15.468 17.9041 15.468C18.1629 15.468 18.3728 15.2581 18.3728 14.9992C18.3728 14.1402 17.7328 13.418 16.8728 13.2219V12.9781C16.8728 12.7193 16.6629 12.5094 16.4041 12.5094C16.1452 12.5094 15.9353 12.7193 15.9353 12.9781V13.2219C15.0753 13.418 14.4353 14.1402 14.4353 14.9992C14.4353 16.0083 15.3185 16.8293 16.4041 16.8293C16.9727 16.8293 17.4353 17.2297 17.4353 17.7219C17.4353 18.214 16.9727 18.6144 16.4041 18.6144C15.8354 18.6144 15.3728 18.214 15.3728 17.7219C15.3728 17.463 15.1629 17.2531 14.9041 17.2531C14.6452 17.2531 14.4353 17.463 14.4353 17.7219C14.4353 18.5808 15.0753 19.3031 15.9353 19.4991V19.7016C15.9353 19.9605 16.1452 20.1704 16.4041 20.1704C16.6629 20.1704 16.8728 19.9605 16.8728 19.7016V19.4991C17.7328 19.3031 18.3728 18.5808 18.3728 17.7219C18.3728 16.7127 17.4896 15.8918 16.4041 15.8918Z" fill="#777777"/>
<path d="M21.5381 13.1035C20.9258 12.1494 20.0631 11.3859 19.0433 10.8957C18.8099 10.7835 18.5299 10.8817 18.4177 11.1151C18.3056 11.3484 18.4038 11.6284 18.6371 11.7406C20.4142 12.5949 21.5624 14.4201 21.5624 16.3907C21.5624 17.2338 21.3545 18.0701 20.9614 18.809C20.8398 19.0375 20.9265 19.3214 21.155 19.443C21.2252 19.4803 21.3005 19.498 21.3748 19.498C21.5425 19.498 21.7047 19.4077 21.789 19.2493C22.2541 18.3754 22.4999 17.3868 22.4999 16.3907C22.4999 15.2207 22.1673 14.084 21.5381 13.1035Z" fill="#777777"/>
<path d="M17.1409 10.297L17.1094 10.2969C16.8505 10.2969 16.6406 10.5068 16.6406 10.7657C16.6406 11.0245 16.8505 11.2344 17.1094 11.2344L17.1365 11.2345C17.1373 11.2345 17.138 11.2345 17.1388 11.2345C17.3966 11.2345 17.6063 11.026 17.6075 10.7679C17.6086 10.509 17.3998 10.2982 17.1409 10.297Z" fill="#777777"/>
<path d="M14.1752 21.0407C12.3982 20.1864 11.25 18.3611 11.25 16.3907C11.25 15.5475 11.4578 14.7113 11.851 13.9723C11.9726 13.7438 11.8859 13.4599 11.6573 13.3383C11.4289 13.2168 11.1449 13.3034 11.0234 13.532C10.5583 14.406 10.3125 15.3945 10.3125 16.3907C10.3125 17.5607 10.6451 18.6973 11.2743 19.6778C11.8866 20.6319 12.7493 21.3954 13.7691 21.8857C13.8345 21.9172 13.9037 21.932 13.9718 21.932C14.1464 21.932 14.3139 21.8341 14.3947 21.6663C14.5067 21.433 14.4086 21.1529 14.1752 21.0407Z" fill="#777777"/>
<path d="M15.7031 21.5469L15.6759 21.5468C15.4159 21.5463 15.2063 21.7544 15.2051 22.0133C15.2039 22.2722 15.4128 22.4831 15.6717 22.4843L15.7031 22.4844C15.9619 22.4844 16.1718 22.2745 16.1718 22.0156C16.1718 21.7568 15.9619 21.5469 15.7031 21.5469Z" fill="#777777"/>
<path d="M18.5348 8.71098C18.4777 8.57505 18.4078 8.44694 18.3265 8.32811H19.5468C20.7358 8.32811 21.7031 7.3608 21.7031 6.17186C21.7031 4.98293 20.7358 4.01562 19.5468 4.01562H15.7931C16.0317 3.66865 16.1718 3.24889 16.1718 2.79687C16.1718 1.60794 15.2045 0.640625 14.0156 0.640625H2.53125C1.34231 0.640625 0.375 1.60794 0.375 2.79687C0.375 3.98581 1.34231 4.95312 2.53125 4.95312H6.28499C6.04635 5.30008 5.90624 5.71985 5.90624 6.17186C5.90624 6.62388 6.0463 7.04364 6.28499 7.39061H5.06249C3.87356 7.39061 2.90624 8.35792 2.90624 9.54686C2.90624 10.2297 3.22565 10.839 3.72257 11.2344C3.22565 11.6297 2.90624 12.239 2.90624 12.9219C2.90624 13.6047 3.22565 14.214 3.72257 14.6093C3.22565 15.0047 2.90624 15.614 2.90624 16.2968C2.90624 16.9797 3.22565 17.589 3.72257 17.9843C3.22565 18.3797 2.90624 18.989 2.90624 19.6718C2.90624 20.8608 3.87356 21.8281 5.06249 21.8281H10.5867C12.042 23.3847 14.1123 24.3594 16.4063 24.3594C20.8002 24.3594 24.375 20.7846 24.375 16.3906C24.375 12.7336 21.8986 9.6445 18.5348 8.71098ZM19.5468 4.95312C20.2189 4.95312 20.7656 5.49987 20.7656 6.17186C20.7656 6.84386 20.2189 7.39061 19.5468 7.39061H16.5468H8.06248C7.39044 7.39061 6.84374 6.84386 6.84374 6.17186C6.84374 5.49987 7.39044 4.95312 8.06248 4.95312H19.5468ZM2.53125 4.01562C1.8592 4.01562 1.3125 3.46887 1.3125 2.79687C1.3125 2.12487 1.8592 1.57812 2.53125 1.57812H14.0156C14.6876 1.57812 15.2343 2.12487 15.2343 2.79687C15.2343 3.46887 14.6876 4.01562 14.0156 4.01562H2.53125ZM5.06249 8.32811H16.5468C16.7357 8.32811 16.9165 8.37198 17.0786 8.45055C16.8569 8.43194 16.6328 8.42191 16.4063 8.42191C14.2057 8.42191 12.2107 9.31858 10.7673 10.7656H5.06249C4.39049 10.7656 3.84374 10.2189 3.84374 9.54686C3.84374 8.87486 4.39049 8.32811 5.06249 8.32811ZM5.06249 11.7031H9.96631C9.43419 12.4321 9.02276 13.2544 8.76148 14.1406H5.06249C4.39045 14.1406 3.84374 13.5939 3.84374 12.9219C3.84374 12.2499 4.39045 11.7031 5.06249 11.7031ZM5.06249 15.0781H8.54623C8.47513 15.5053 8.43753 15.9436 8.43753 16.3906C8.43753 16.7725 8.46514 17.148 8.51731 17.5156H5.06249C4.39045 17.5156 3.84374 16.9689 3.84374 16.2968C3.84374 15.6248 4.39045 15.0781 5.06249 15.0781ZM5.06249 20.8906C4.39045 20.8906 3.84374 20.3439 3.84374 19.6718C3.84374 18.9998 4.39045 18.4531 5.06249 18.4531H8.7087C8.94523 19.3349 9.32947 20.1568 9.83337 20.8906H5.06249ZM16.4063 23.4219C12.5292 23.4219 9.37503 20.2677 9.37503 16.3906C9.37503 12.5136 12.5292 9.3594 16.4063 9.3594C20.2833 9.3594 23.4375 12.5136 23.4375 16.3906C23.4375 20.2677 20.2833 23.4219 16.4063 23.4219Z" fill="#777777"/>
</g>
<defs>
<clipPath id="clip0_252_596">
<rect width="24" height="24" fill="white" transform="translate(0.375 0.5)"/>
</clipPath>
</defs>
</svg>
