<svg width="20" height="24" viewBox="0 0 20 24" fill="none" xmlns="http://www.w3.org/2000/svg">
<path d="M13.3123 8.69531C13.0019 8.69531 12.7502 8.94692 12.7502 9.25737V19.8803C12.7502 20.1905 13.0019 20.4423 13.3123 20.4423C13.6228 20.4423 13.8744 20.1905 13.8744 19.8803V9.25737C13.8744 8.94692 13.6228 8.69531 13.3123 8.69531Z" fill="#E3000F"/>
<path d="M6.67998 8.69531C6.36953 8.69531 6.11792 8.94692 6.11792 9.25737V19.8803C6.11792 20.1905 6.36953 20.4423 6.67998 20.4423C6.99043 20.4423 7.24204 20.1905 7.24204 19.8803V9.25737C7.24204 8.94692 6.99043 8.69531 6.67998 8.69531Z" fill="#E3000F"/>
<path d="M1.84634 7.14503V20.993C1.84634 21.8115 2.14647 22.5801 2.67077 23.1317C3.19265 23.6847 3.91893 23.9987 4.67903 24H15.3134C16.0737 23.9987 16.8 23.6847 17.3216 23.1317C17.8459 22.5801 18.1461 21.8115 18.1461 20.993V7.14503C19.1883 6.86839 19.8636 5.86152 19.7242 4.79207C19.5846 3.72284 18.6736 2.923 17.5952 2.92278H14.7175V2.22021C14.7208 1.62939 14.4872 1.06206 14.0689 0.644685C13.6507 0.227532 13.0825 -0.00475635 12.4917 7.385e-05H7.50074C6.90992 -0.00475635 6.34172 0.227532 5.92346 0.644685C5.50521 1.06206 5.27161 1.62939 5.2749 2.22021V2.92278H2.3972C1.31875 2.923 0.40782 3.72284 0.268183 4.79207C0.128766 5.86152 0.804115 6.86839 1.84634 7.14503ZM15.3134 22.8759H4.67903C3.71804 22.8759 2.97046 22.0504 2.97046 20.993V7.19443H17.0219V20.993C17.0219 22.0504 16.2744 22.8759 15.3134 22.8759ZM6.39902 2.22021C6.39529 1.92754 6.51033 1.64585 6.71803 1.43925C6.92551 1.23265 7.20786 1.11914 7.50074 1.12419H12.4917C12.7845 1.11914 13.0669 1.23265 13.2744 1.43925C13.4821 1.64563 13.5971 1.92754 13.5934 2.22021V2.92278H6.39902V2.22021ZM2.3972 4.0469H17.5952C18.154 4.0469 18.6069 4.49984 18.6069 5.05861C18.6069 5.61737 18.154 6.07031 17.5952 6.07031H2.3972C1.83844 6.07031 1.3855 5.61737 1.3855 5.05861C1.3855 4.49984 1.83844 4.0469 2.3972 4.0469Z" fill="#E3000F"/>
<path d="M9.99614 8.69531C9.68569 8.69531 9.43408 8.94692 9.43408 9.25737V19.8803C9.43408 20.1905 9.68569 20.4423 9.99614 20.4423C10.3066 20.4423 10.5582 20.1905 10.5582 19.8803V9.25737C10.5582 8.94692 10.3066 8.69531 9.99614 8.69531Z" fill="#E3000F"/>
</svg>
