<svg width="24" height="24" viewBox="0 0 24 24" fill="none" xmlns="http://www.w3.org/2000/svg">
<path d="M24 12C24 18.6274 18.6274 24 12 24C8.50628 24 5.36131 22.5071 3.16849 20.1242C2.59249 19.4988 2.08261 18.8116 1.64865 18.0744C0.60098 16.2926 0 14.2163 0 12C0 5.37257 5.37257 0 12 0C14.2168 0 16.2931 0.600979 18.0744 1.64914C18.8116 2.08261 19.4983 2.59249 20.1238 3.16898C22.5066 5.36082 24 8.50628 24 12Z" fill="#F0CD00"/>
<path d="M24 12C24 18.478 18.8675 23.7571 12.4467 23.9917C6.026 23.7571 0.893433 18.478 0.893433 12C0.893433 5.52196 6.026 0.242944 12.4467 0.0083313C18.8675 0.242944 24 5.52196 24 12Z" fill="#FFDE50"/>
<path d="M20.1238 3.16898L3.16852 20.1242C2.59252 19.4988 2.08264 18.8116 1.64868 18.0744L18.0745 1.64914C18.8116 2.08261 19.4983 2.59249 20.1238 3.16898Z" fill="#FFEA94"/>
<path d="M23.1723 7.61291L7.61242 23.1727C6.51087 22.7398 5.48867 22.1486 4.57422 21.4271L21.4271 4.57422C22.1486 5.48867 22.7398 6.51087 23.1723 7.61291Z" fill="#FFEA94"/>
<path d="M21.3248 12C21.3248 17.1497 17.1497 21.3247 12 21.3247C10.2064 21.3247 8.53129 20.8183 7.10942 19.9406C6.48982 19.5585 5.91872 19.1055 5.40639 18.5931C5.02974 18.217 4.68493 17.808 4.37684 17.3716C3.95268 16.7706 3.59758 16.1172 3.32378 15.4232C2.91823 14.3971 2.68999 13.2813 2.67627 12.1146C2.67529 12.0764 2.67529 12.0382 2.67529 12C2.67529 6.85028 6.84982 2.67526 12 2.67526C12.0382 2.67526 12.0769 2.67526 12.1151 2.67624C13.2818 2.68996 14.3971 2.91869 15.4232 3.32375C16.1173 3.59804 16.7706 3.95265 17.3716 4.37681C17.808 4.68538 18.2165 5.02971 18.5932 5.40636C19.1055 5.9182 19.5586 6.48979 19.9406 7.10939C20.8183 8.53126 21.3248 10.2064 21.3248 12Z" fill="#FAA300"/>
<path d="M18.5932 5.40636L5.40639 18.5931C5.02974 18.217 4.68493 17.808 4.37684 17.3716C3.95268 16.7706 3.59758 16.1172 3.32378 15.4232C2.91823 14.3971 2.68999 13.2813 2.67627 12.1146C2.67529 12.0764 2.67529 12.0382 2.67529 12C2.67529 6.85028 6.84982 2.67526 12 2.67526C12.0382 2.67526 12.0769 2.67526 12.1151 2.67624C13.2818 2.68996 14.3971 2.91869 15.4232 3.32375C16.1173 3.59804 16.7706 3.95265 17.3716 4.37681C17.808 4.68538 18.2165 5.02971 18.5932 5.40636Z" fill="#FFBD00"/>
<path d="M21.3245 12C21.3245 17.1497 17.1495 21.3247 11.9998 21.3247C11.823 21.3247 11.6476 21.3198 11.4733 21.31C16.3781 21.0372 20.271 16.9729 20.271 12C20.271 7.0271 16.3781 2.96277 11.4733 2.68996C11.6476 2.68016 11.823 2.67526 11.9998 2.67526C17.1495 2.67526 21.3245 6.85028 21.3245 12Z" fill="#F68E00"/>
<path d="M11.6928 11.2835V7.50709C12.2813 7.83178 12.681 8.45842 12.681 9.17681C12.681 9.68355 13.0918 10.0943 13.5985 10.0943C14.1053 10.0943 14.5161 9.68355 14.5161 9.17681C14.5161 7.43063 13.3133 5.96036 11.6928 5.55021V4.80337C11.6928 4.29663 11.282 3.88583 10.7752 3.88583C10.2685 3.88583 9.85771 4.29663 9.85771 4.80337V5.55016C8.23722 5.96036 7.03442 7.43058 7.03442 9.17676C7.03442 10.2194 7.34064 11.0324 7.97057 11.6624C8.42985 12.1217 9.03994 12.4615 9.85771 12.7107V16.493C9.26917 16.1683 8.86949 15.5417 8.86949 14.8233C8.86949 14.3166 8.4587 13.9058 7.95196 13.9058C7.44522 13.9058 7.03442 14.3166 7.03442 14.8233C7.03442 16.5695 8.23722 18.0397 9.85771 18.4499V19.1967C9.85771 19.7035 10.2685 20.1142 10.7752 20.1142C11.282 20.1142 11.6928 19.7035 11.6928 19.1967V18.4499C13.3133 18.0397 14.5161 16.5695 14.5161 14.8233C14.5161 13.7951 14.1967 12.9545 13.5669 12.3247C13.1092 11.867 12.4915 11.5238 11.6928 11.2835ZM9.26819 10.3648C9.08255 10.1792 8.86954 9.87643 8.86954 9.17676C8.86954 8.45837 9.26922 7.83178 9.85775 7.50704V10.7552C9.61026 10.6406 9.41434 10.511 9.26819 10.3648ZM11.6928 16.493V13.2348C12.4902 13.6062 12.681 14.1375 12.681 14.8233C12.681 15.5417 12.2813 16.1683 11.6928 16.493Z" fill="#F68E00"/>
<path d="M12.9174 11.2835V7.50709C13.5059 7.83178 13.9056 8.45842 13.9056 9.17681C13.9056 9.68355 14.3164 10.0943 14.8231 10.0943C15.3299 10.0943 15.7407 9.68355 15.7407 9.17681C15.7407 7.43063 14.5379 5.96036 12.9174 5.55021V4.80337C12.9174 4.29663 12.5066 3.88583 11.9998 3.88583C11.4931 3.88583 11.0823 4.29663 11.0823 4.80337V5.55016C9.46183 5.96036 8.25903 7.43058 8.25903 9.17676C8.25903 10.2194 8.56525 11.0324 9.19518 11.6624C9.65446 12.1217 10.2646 12.4615 11.0823 12.7107V16.493C10.4938 16.1683 10.0941 15.5417 10.0941 14.8233C10.0941 14.3166 9.68331 13.9058 9.17657 13.9058C8.66983 13.9058 8.25903 14.3166 8.25903 14.8233C8.25903 16.5695 9.46183 18.0397 11.0823 18.4499V19.1967C11.0823 19.7035 11.4931 20.1142 11.9998 20.1142C12.5066 20.1142 12.9174 19.7035 12.9174 19.1967V18.4499C14.5379 18.0397 15.7407 16.5695 15.7407 14.8233C15.7407 13.7951 15.4213 12.9545 14.7915 12.3247C14.3338 11.867 13.7161 11.5238 12.9174 11.2835ZM10.4927 10.3648C10.3071 10.1792 10.0941 9.87643 10.0941 9.17676C10.0941 8.45837 10.4938 7.83178 11.0823 7.50704V10.7552C10.8349 10.6406 10.639 10.511 10.4927 10.3648ZM12.9174 16.493V13.2348C13.7148 13.6062 13.9056 14.1375 13.9056 14.8233C13.9055 15.5417 13.5059 16.1683 12.9174 16.493Z" fill="#FFEA94"/>
</svg>
