<svg width="24" height="24" viewBox="0 0 24 24" fill="none" xmlns="http://www.w3.org/2000/svg">
<path d="M19.4538 10.4065C19.0654 10.4065 18.7506 10.7213 18.7506 11.1096V21.4224C18.7506 22.0686 18.2249 22.5944 17.5787 22.5944H2.57821C1.93202 22.5944 1.4063 22.0686 1.4063 21.4224V6.42196C1.4063 5.77576 1.93202 5.25005 2.57821 5.25005H12.891C13.2794 5.25005 13.5942 4.93522 13.5942 4.5469C13.5942 4.15857 13.2794 3.84375 12.891 3.84375H2.57821C1.15658 3.84375 0 5.00033 0 6.42196V21.4224C0 22.8441 1.15658 24.0006 2.57821 24.0006H17.5787C19.0003 24.0006 20.1569 22.8441 20.1569 21.4224V11.1096C20.1569 10.7213 19.8421 10.4065 19.4538 10.4065Z" fill="#777777"/>
<path d="M23.5204 1.80566L22.1945 0.479758C21.5549 -0.159919 20.5141 -0.159919 19.8743 0.479758L9.2674 11.0867C9.16924 11.1849 9.10235 11.3099 9.07507 11.446L8.41209 14.7607C8.36601 14.9912 8.43815 15.2295 8.60443 15.3958C8.7376 15.5289 8.917 15.6017 9.1016 15.6017C9.14749 15.6017 9.19362 15.5972 9.23946 15.5881L12.5541 14.9251C12.6903 14.8979 12.8153 14.831 12.9135 14.7328L23.5204 4.12591C23.5204 4.12591 23.5205 4.12591 23.5205 4.12586C24.1601 3.48623 24.1601 2.44538 23.5204 1.80566ZM12.0696 13.5879L9.99797 14.0023L10.4124 11.9306L19.0456 3.29722L20.703 4.95459L12.0696 13.5879ZM22.526 3.13152L21.6974 3.9602L20.04 2.30283L20.8686 1.4742C20.96 1.38279 21.1087 1.38274 21.2001 1.47415L22.526 2.80005C22.6175 2.89141 22.6175 3.04015 22.526 3.13152Z" fill="#777777"/>
</svg>
