<svg width="24" height="16" viewBox="0 0 24 16" fill="none" xmlns="http://www.w3.org/2000/svg">
<path d="M22.7692 -1.52588e-05H1.2308C0.553828 -1.52588e-05 0 0.553812 0 1.23073V14.7692C0 15.4461 0.553828 16 1.2308 16H22.7692C23.4461 16 24 15.4462 24 14.7692V1.23073C24 0.553812 23.4462 -1.52588e-05 22.7692 -1.52588e-05ZM22.3073 0.923L12.708 8.12309C12.5354 8.25443 12.2705 8.33661 12 8.33539C11.7295 8.33661 11.4646 8.25443 11.292 8.12309L1.69261 0.923H22.3073ZM17.1797 8.59817L22.4105 15.0597C22.4157 15.0662 22.4221 15.0711 22.4277 15.077H1.57228C1.57781 15.0709 1.58428 15.0662 1.58953 15.0597L6.82031 8.59817C6.98058 8.40003 6.9502 8.10954 6.75169 7.9489C6.55355 7.78864 6.26306 7.81901 6.10275 8.0172L0.923062 14.4157V1.49994L10.7384 8.86146C11.1074 9.13624 11.5562 9.25718 11.9999 9.2584C12.443 9.25746 12.8922 9.13653 13.2614 8.86146L23.0767 1.49994V14.4156L17.8972 8.0172C17.7369 7.81906 17.4461 7.78859 17.2483 7.9489C17.0498 8.10917 17.0193 8.40003 17.1797 8.59817Z" fill="#008BD2"/>
</svg>
