<svg width="24" height="24" viewBox="0 0 24 24" fill="none" xmlns="http://www.w3.org/2000/svg">
<g clip-path="url(#clip0_73_3142)">
<path d="M22.39 1.60999C21.8792 1.099 21.2728 0.693641 20.6053 0.417079C19.9378 0.140516 19.2224 -0.00183105 18.5 -0.00183105C17.7775 -0.00183105 17.0621 0.140516 16.3946 0.417079C15.7271 0.693641 15.1207 1.099 14.61 1.60999C12.545 3.67999 19.475 -3.25001 1.60995 14.61C0.721496 15.5047 0.167417 16.6775 0.0405107 17.9319C-0.0863952 19.1864 0.221578 20.4464 0.912853 21.5009C1.60413 22.5554 2.63673 23.3403 3.83772 23.7243C5.03871 24.1082 6.33516 24.0679 7.50995 23.61C8.91995 23.055 8.92995 22.84 15.045 16.725C15.3329 16.4371 15.5862 16.1166 15.8 15.77C16.1391 15.5621 16.4529 15.3155 16.735 15.035C22.845 8.93499 23.07 8.91999 23.62 7.49999C24.0093 6.50487 24.1003 5.41788 23.8818 4.37188C23.6634 3.32587 23.145 2.36615 22.39 1.60999ZM7.61495 12.865C7.88568 13.6928 8.34914 14.4446 8.96719 15.0583C9.58525 15.672 10.3402 16.1301 11.17 16.395L7.26495 20.27C7.03654 20.5178 6.76038 20.7169 6.45308 20.8552C6.14577 20.9936 5.81366 21.0684 5.4767 21.0751C5.13975 21.0819 4.80491 21.0204 4.49232 20.8945C4.17972 20.7685 3.89582 20.5806 3.65768 20.3422C3.41954 20.1037 3.23207 19.8195 3.10655 19.5067C2.98103 19.194 2.92005 18.859 2.92727 18.5221C2.93449 18.1852 3.00976 17.8532 3.14856 17.546C3.28736 17.2389 3.48682 16.9631 3.73495 16.735C7.12495 13.34 6.20995 14.255 7.61495 12.865ZM8.67995 21.68C7.8269 22.4749 6.69863 22.9076 5.53282 22.887C4.36701 22.8665 3.2547 22.3942 2.43022 21.5697C1.60575 20.7452 1.13347 19.6329 1.1129 18.4671C1.09233 17.3013 1.52507 16.173 2.31995 15.32C7.95995 9.67999 7.43495 10.165 7.41495 10.32C7.34121 10.7863 7.32609 11.26 7.36995 11.73L3.02995 16.025C2.52826 16.5248 2.18996 17.165 2.05975 17.861C1.92953 18.5571 2.01352 19.2763 2.30062 19.9236C2.58772 20.571 3.06443 21.116 3.66778 21.4867C4.27113 21.8574 4.97275 22.0364 5.67995 22C7.35495 21.93 7.63995 21.35 12.51 16.5C13.545 15.5 14.115 15.05 14.465 14.135C14.6685 13.5983 14.7369 13.0197 14.6642 12.4503C14.5914 11.8809 14.3797 11.3381 14.0478 10.8698C13.7158 10.4015 13.2737 10.0221 12.7606 9.76487C12.2474 9.50768 11.6788 9.38066 11.105 9.39499L12.035 8.46499C12.8338 8.62461 13.5743 8.99806 14.1775 9.54551C14.7807 10.093 15.224 10.7939 15.4601 11.5735C15.6962 12.3532 15.7162 13.1822 15.5181 13.9724C15.3199 14.7625 14.911 15.484 14.335 16.06L8.67995 21.68ZM10.445 10.5C10.8734 10.3682 11.3294 10.354 11.7652 10.4588C12.201 10.5637 12.6006 10.7839 12.9221 11.0962C13.2436 11.4085 13.4753 11.8016 13.5928 12.2341C13.7103 12.6667 13.7093 13.1229 13.59 13.555C13.1615 13.6868 12.7055 13.701 12.2697 13.5961C11.8339 13.4912 11.4343 13.2711 11.1128 12.9588C10.7913 12.6465 10.5596 12.2534 10.4421 11.8209C10.3247 11.3883 10.3256 10.9321 10.445 10.5ZM16.39 11.165C16.1219 10.3384 15.6618 9.5871 15.0473 8.97264C14.4328 8.35819 13.6815 7.89807 12.855 7.62999C16.95 3.49999 17.11 3.05999 18.37 2.99999C18.7211 2.98113 19.0724 3.03657 19.4007 3.1627C19.729 3.28884 20.027 3.48282 20.2752 3.73198C20.5234 3.98115 20.7163 4.27988 20.8412 4.60866C20.966 4.93744 21.0202 5.28887 21 5.63999C20.935 6.92499 20.4 7.13499 16.39 11.145V11.165ZM21.68 8.69999C16.04 14.325 16.56 13.835 16.58 13.705C16.6554 13.2456 16.6722 12.7786 16.63 12.315L20.97 7.99999C21.5791 7.39137 21.9362 6.57539 21.97 5.71499C22.0084 5.01051 21.833 4.31086 21.4669 3.70779C21.1007 3.10472 20.5608 2.62639 19.918 2.33554C19.2752 2.04469 18.5595 1.95489 17.8648 2.07793C17.1701 2.20096 16.5288 2.53108 16.025 3.02499C9.70995 9.33999 9.94995 8.95999 9.57495 9.90999C9.07495 10.91 9.39495 12.88 10.415 13.67C10.7433 13.9958 11.1339 14.2522 11.5634 14.424C11.9928 14.5957 12.4525 14.6794 12.915 14.67L12 15.575C11.2023 15.418 10.462 15.0478 9.85785 14.5038C9.25369 13.9598 8.8082 13.2622 8.56871 12.4853C8.32922 11.7084 8.30469 10.8811 8.49771 10.0913C8.69073 9.30157 9.0941 8.57887 9.66495 7.99999C15.665 1.99999 15.665 1.79499 16.86 1.33499C21.345 -0.460005 25.13 5.22999 21.68 8.67999V8.69999Z" fill="#008BD2"/>
</g>
<defs>
<clipPath id="clip0_73_3142">
<rect width="24" height="24" fill="white"/>
</clipPath>
</defs>
</svg>
