<svg width="24" height="24" viewBox="0 0 24 24" fill="none" xmlns="http://www.w3.org/2000/svg">
<g clip-path="url(#clip0_73_3186)">
<path d="M10.8862 13.0981C10.8418 13.0885 10.7963 13.0868 10.7513 13.0935C10.3006 13.041 9.96051 12.6597 9.95974 12.206C9.95974 11.9886 9.78348 11.8124 9.56607 11.8124C9.34867 11.8124 9.1724 11.9886 9.1724 12.206C9.17356 12.9636 9.68025 13.6271 10.4107 13.8276V14.2213C10.4107 14.4387 10.587 14.6149 10.8044 14.6149C11.0218 14.6149 11.198 14.4387 11.198 14.2213V13.8514C12.0411 13.675 12.6141 12.8898 12.5255 12.033C12.4367 11.1763 11.7149 10.5252 10.8536 10.525C10.3599 10.525 9.95974 10.1248 9.95974 9.63122C9.95974 9.13759 10.3599 8.73739 10.8536 8.73739C11.3472 8.73739 11.7474 9.13759 11.7474 9.63122C11.7474 9.84862 11.9237 10.0249 12.1411 10.0249C12.3585 10.0249 12.5347 9.84862 12.5347 9.63122C12.5336 8.83581 11.9763 8.14977 11.198 7.98561V7.62731C11.198 7.40991 11.0218 7.23364 10.8044 7.23364C10.587 7.23364 10.4107 7.40991 10.4107 7.62731V8.00964C9.59837 8.23146 9.07552 9.02015 9.1874 9.85477C9.29927 10.6894 10.0115 11.3124 10.8536 11.3122C11.3407 11.3122 11.738 11.7022 11.7468 12.1891C11.7559 12.676 11.373 13.0804 10.8862 13.0981Z" fill="#008BD2"/>
<path d="M5.14502 10.9489C5.14502 14.1018 7.70079 16.6575 10.8536 16.6575C14.0064 16.6575 16.5622 14.1018 16.5622 10.9489C16.5622 7.79613 14.0064 5.24036 10.8536 5.24036C7.70233 5.24382 5.14867 7.79767 5.14502 10.9489ZM10.8536 6.0277C13.5716 6.0277 15.7749 8.23094 15.7749 10.9489C15.7749 13.667 13.5716 15.8702 10.8536 15.8702C8.1356 15.8702 5.93236 13.667 5.93236 10.9489C5.93543 8.23228 8.13694 6.03077 10.8536 6.0277Z" fill="#008BD2"/>
<path d="M18.5028 17.6281L15.419 19.0851C14.9933 18.2931 14.1765 17.7891 13.2777 17.7638L10.4309 17.6855C9.98012 17.6727 9.53782 17.5585 9.13704 17.3514L8.84736 17.2013C7.36418 16.4282 5.59632 16.4301 4.11468 17.2063L4.13275 16.5501C4.13871 16.3327 3.96744 16.1516 3.75004 16.1456L0.628362 16.0597C0.41096 16.0538 0.230079 16.225 0.22412 16.4424L0.0355513 23.2928C0.0295925 23.5102 0.200862 23.6913 0.418264 23.6973L3.53994 23.7832H3.5507C3.76407 23.7832 3.93861 23.6134 3.94437 23.4003L3.95341 23.0725L4.76439 22.6383C5.08271 22.467 5.45485 22.4263 5.80258 22.5247L10.6454 23.8839C10.6539 23.8864 10.6623 23.8883 10.671 23.8902C11.021 23.9635 11.3778 24.0002 11.7353 24C12.4926 24.0004 13.2412 23.8372 13.9295 23.5212C13.9464 23.5135 13.9628 23.5045 13.9783 23.4943L21 18.9525C21.1749 18.8392 21.2314 18.6095 21.129 18.4281C20.6077 17.5031 19.4514 17.1508 18.5028 17.6281ZM0.833462 22.9211L1.00031 16.8576L3.33484 16.9218L3.16799 22.9855L0.833462 22.9211ZM13.5749 22.818C12.7197 23.204 11.7645 23.3105 10.8453 23.1227L6.01556 21.767C5.47195 21.6134 4.8901 21.677 4.39282 21.9444L3.9784 22.1664L4.08931 18.1349C5.40256 17.2615 7.08681 17.1717 8.48541 17.9004L8.77509 18.0506C9.2814 18.312 9.8398 18.4561 10.4094 18.4727L13.2563 18.5509C14.056 18.574 14.7351 19.1433 14.8973 19.9268L10.6567 19.8098C10.4393 19.8038 10.2585 19.9753 10.2523 20.1925C10.2463 20.4099 10.4178 20.591 10.635 20.5969L15.3148 20.7257H15.3258C15.539 20.7255 15.7133 20.5558 15.7191 20.3428C15.7239 20.1717 15.7112 20.0005 15.681 19.8321L18.844 18.3375C18.8471 18.3362 18.8502 18.3347 18.8533 18.3331C19.3019 18.1061 19.8443 18.182 20.2134 18.5236L13.5749 22.818Z" fill="#008BD2"/>
<path d="M11.2473 4.13353V0.393669C11.2473 0.176267 11.071 0 10.8536 0C10.6362 0 10.46 0.176267 10.46 0.393669V4.13353C10.46 4.35093 10.6362 4.5272 10.8536 4.5272C11.071 4.5272 11.2473 4.35093 11.2473 4.13353Z" fill="#008BD2"/>
<path d="M14.1998 4.13356V2.36205C14.1998 2.14465 14.0235 1.96838 13.8061 1.96838C13.5887 1.96838 13.4125 2.14465 13.4125 2.36205V4.13356C13.4125 4.35097 13.5887 4.52723 13.8061 4.52723C14.0235 4.52723 14.1998 4.35097 14.1998 4.13356Z" fill="#008BD2"/>
<path d="M8.29478 4.13356V2.36205C8.29478 2.14465 8.11852 1.96838 7.90112 1.96838C7.68371 1.96838 7.50745 2.14465 7.50745 2.36205V4.13356C7.50745 4.35097 7.68371 4.52723 7.90112 4.52723C8.11852 4.52723 8.29478 4.35097 8.29478 4.13356Z" fill="#008BD2"/>
</g>
<defs>
<clipPath id="clip0_73_3186">
<rect width="24" height="24" fill="white"/>
</clipPath>
</defs>
</svg>
