<svg width="24" height="24" viewBox="0 0 24 24" fill="none" xmlns="http://www.w3.org/2000/svg">
<path d="M22.5701 10.734L18.8093 6.60317C18.0883 5.8802 16.8363 5.87519 16.1024 6.60917C15.8654 6.84616 15.7034 7.13115 15.6194 7.43512C14.8895 6.87513 13.7755 6.93616 13.1025 7.60912C12.8655 7.84611 12.7035 8.13109 12.6175 8.43408C11.8895 7.87409 10.7746 7.93812 10.1026 8.60906C9.86964 8.84207 9.70967 9.12105 9.62267 9.41603L7.85073 7.64408C7.10577 6.90011 5.89579 6.8981 5.14282 7.65008C4.39787 8.39405 4.39787 9.606 5.14282 10.351L11.9505 17.1587L7.91471 17.7926C6.82275 17.9487 5.9998 18.8967 5.9998 19.9996C5.9998 20.8266 6.67276 21.4995 7.49974 21.4995H16.9284C18.3963 21.4995 19.7773 20.9275 20.8192 19.8876L22.3911 18.3147C23.4291 17.2777 24 15.8978 24 14.4308C24 13.0609 23.4921 11.748 22.5701 10.734ZM21.6832 17.6087L20.1112 19.1816C19.2602 20.0316 18.1293 20.4995 16.9284 20.4995H7.49974C7.22474 20.4995 6.99974 20.2755 6.99974 19.9995C6.99974 19.3916 7.45371 18.8686 8.0617 18.7806L13.0765 17.9926C13.2625 17.9636 13.4155 17.8326 13.4745 17.6536C13.5325 17.4757 13.4855 17.2787 13.3525 17.1457L5.84981 9.64303C5.49582 9.28806 5.49582 8.71106 5.85581 8.35009C6.03379 8.17309 6.26679 8.08408 6.4998 8.08408C6.7328 8.08408 6.96576 8.17309 7.14379 8.35107L10.0796 11.287C10.0866 11.295 10.0956 11.3029 10.1036 11.311L12.1475 13.3539C12.3425 13.5489 12.6595 13.5489 12.8545 13.3539C13.0495 13.1589 13.0495 12.8419 12.8545 12.6469L10.7936 10.586C10.4566 10.23 10.4626 9.66502 10.8166 9.31005C11.1606 8.96806 11.7586 8.96604 12.1026 9.31005L13.0856 10.294C13.0916 10.3 13.0966 10.306 13.1026 10.311L14.1465 11.354C14.3415 11.549 14.6585 11.549 14.8535 11.354C15.0485 11.159 15.0485 10.842 14.8535 10.647L13.7976 9.59203C13.4566 9.23603 13.4606 8.66709 13.8165 8.3101C14.1595 7.96812 14.7585 7.9661 15.1025 8.3101L16.1465 9.35804C16.1474 9.35903 16.1474 9.36006 16.1485 9.36006L16.1495 9.36104C16.1576 9.36512 16.1556 9.36409 16.1534 9.36306C16.1534 9.36306 16.1534 9.36404 16.1544 9.36404C16.1554 9.36503 16.1554 9.36503 16.1554 9.36503C16.1564 9.36601 16.1564 9.36601 16.1564 9.36601H16.1574C16.1584 9.36601 16.1584 9.36601 16.1584 9.36601C16.3564 9.54999 16.6644 9.54502 16.8543 9.35303C17.0483 9.15804 17.0483 8.84207 16.8534 8.64707L16.7934 8.58708C16.4554 8.23107 16.4604 7.66513 16.8153 7.31011C17.1593 6.96813 17.7733 6.98313 18.0853 7.2931L21.8291 11.4079C22.5841 12.2379 22.9991 13.3109 22.9991 14.4318C22.9991 15.6308 22.5311 16.7597 21.6832 17.6087Z" fill="#008BD2"/>
<path d="M16.1524 9.36305H16.1534C16.1524 9.36253 16.1514 9.36206 16.1514 9.36206C16.1524 9.36304 16.1534 9.36305 16.1524 9.36305Z" fill="#008BD2"/>
<path d="M10.5965 7.15415C9.86757 5.54223 8.26062 4.50024 6.49969 4.50024C4.0188 4.50024 1.99988 6.51916 1.99988 9.00006C1.99988 10.76 3.04182 12.3679 4.65275 13.0969C4.71974 13.1269 4.78976 13.1409 4.85876 13.1409C5.04977 13.1409 5.23075 13.0309 5.31474 12.8469C5.42775 12.5949 5.31676 12.2989 5.06477 12.1849C3.81082 11.618 2.99987 10.3681 2.99987 9.00011C2.99987 7.0702 4.56979 5.50023 6.49974 5.50023C7.86768 5.50023 9.11765 6.31119 9.68463 7.56513C9.79862 7.81712 10.0936 7.9291 10.3466 7.81511C10.5976 7.70214 10.7096 7.40516 10.5965 7.15415Z" fill="#008BD2"/>
<path d="M12.7745 7.32918C12.0195 4.48628 9.4386 2.50037 6.49975 2.50037C2.91588 2.50037 0 5.41625 0 9.00011C0 11.939 1.98592 14.5199 4.8298 15.2749C4.87278 15.2869 4.91581 15.2919 4.95781 15.2919C5.1798 15.2919 5.38178 15.1449 5.44079 14.9209C5.51181 14.6539 5.3538 14.3799 5.08582 14.3089C2.68091 13.6699 0.99999 11.487 0.99999 9.00011C0.99999 5.96724 3.46791 3.50036 6.49975 3.50036C8.98566 3.50036 11.1696 5.18029 11.8085 7.58619C11.8785 7.85219 12.1435 8.01217 12.4205 7.94116C12.6865 7.87015 12.8445 7.59617 12.7745 7.32918Z" fill="#008BD2"/>
</svg>
