<svg width="25" height="25" viewBox="0 0 25 25" fill="none" xmlns="http://www.w3.org/2000/svg">
<g clip-path="url(#clip0_150_30)">
<path d="M17.8614 24.4953H7.88833C6.76049 24.5372 5.66168 24.1323 4.83065 23.3687C3.99962 22.605 3.50351 21.5443 3.45012 20.4169V15.0705C3.45012 14.8433 3.54039 14.6253 3.70107 14.4647C3.86175 14.304 4.07968 14.2137 4.30691 14.2137C4.53415 14.2137 4.75208 14.304 4.91276 14.4647C5.07344 14.6253 5.16371 14.8433 5.16371 15.0705V20.4169C5.21637 21.0899 5.53165 21.7152 6.04145 22.1576C6.55124 22.6001 7.21464 22.8242 7.88833 22.7817H17.8614C18.5351 22.8242 19.1985 22.6001 19.7083 22.1576C20.2181 21.7152 20.5334 21.0899 20.5861 20.4169V15.0705C20.5861 14.8433 20.6763 14.6253 20.837 14.4647C20.9977 14.304 21.2156 14.2137 21.4429 14.2137C21.6701 14.2137 21.888 14.304 22.0487 14.4647C22.2094 14.6253 22.2997 14.8433 22.2997 15.0705V20.4169C22.2463 21.5443 21.7501 22.605 20.9191 23.3687C20.0881 24.1323 18.9893 24.5372 17.8614 24.4953ZM24.6216 13.1085C24.7019 13.0288 24.7656 12.934 24.8091 12.8296C24.8526 12.7252 24.875 12.6132 24.875 12.5001C24.875 12.387 24.8526 12.275 24.8091 12.1706C24.7656 12.0662 24.7019 11.9714 24.6216 11.8918L13.4832 0.753439C13.4036 0.673133 13.3088 0.609392 13.2044 0.565894C13.1 0.522395 12.988 0.5 12.8749 0.5C12.7618 0.5 12.6498 0.522395 12.5454 0.565894C12.441 0.609392 12.3462 0.673133 12.2666 0.753439L1.1282 11.8918C0.966859 12.0531 0.876221 12.272 0.876221 12.5001C0.876221 12.7283 0.966859 12.9471 1.1282 13.1085C1.28954 13.2698 1.50836 13.3604 1.73652 13.3604C1.96469 13.3604 2.18351 13.2698 2.34485 13.1085L12.8749 2.56985L23.4049 13.1085C23.4846 13.1888 23.5793 13.2525 23.6837 13.296C23.7881 13.3395 23.9001 13.3619 24.0132 13.3619C24.1264 13.3619 24.2383 13.3395 24.3427 13.296C24.4472 13.2525 24.5419 13.1888 24.6216 13.1085Z" fill="#008BD2"/>
</g>
<defs>
<clipPath id="clip0_150_30">
<rect width="24" height="24" fill="white" transform="translate(0.875 0.5)"/>
</clipPath>
</defs>
</svg>
