<svg width="24" height="24" viewBox="0 0 24 24" fill="none" xmlns="http://www.w3.org/2000/svg">
<g clip-path="url(#clip0_23_64)">
<path fill-rule="evenodd" clip-rule="evenodd" d="M9.46667 11.6667C9.46667 13.1394 8.27276 14.3333 6.79999 14.3333C5.32722 14.3333 4.1333 13.1394 4.1333 11.6667C4.1333 10.1939 5.32722 8.99999 6.79999 8.99999C8.27276 8.99999 9.46667 10.1939 9.46667 11.6667ZM8.26666 11.6667C8.26666 12.4767 7.61002 13.1333 6.79999 13.1333C5.98997 13.1333 5.33331 12.4767 5.33331 11.6667C5.33331 10.8567 5.98997 10.2 6.79999 10.2C7.61002 10.2 8.26666 10.8567 8.26666 11.6667Z" fill="#008BD2"/>
<path d="M4.19989 18.6C4.19989 17.1641 5.36396 16 6.79992 16C8.23587 16 9.39994 17.1641 9.39994 18.6H10.5999C10.5999 16.5013 8.89862 14.8 6.79992 14.8C4.70121 14.8 2.99988 16.5013 2.99988 18.6H4.19989Z" fill="#008BD2"/>
<path fill-rule="evenodd" clip-rule="evenodd" d="M20.4 10.2C20.4 10.5313 20.1313 10.8 19.8 10.8H13.1999C12.8686 10.8 12.5999 10.5313 12.5999 10.2C12.5999 9.86866 12.8686 9.59998 13.1999 9.59998H19.8C20.1313 9.59998 20.4 9.86866 20.4 10.2Z" fill="#008BD2"/>
<path fill-rule="evenodd" clip-rule="evenodd" d="M20.4 13.8C20.4 14.1313 20.1313 14.4 19.8 14.4H13.1999C12.8686 14.4 12.5999 14.1313 12.5999 13.8C12.5999 13.4687 12.8686 13.2 13.1999 13.2H19.8C20.1313 13.2 20.4 13.4687 20.4 13.8Z" fill="#008BD2"/>
<path fill-rule="evenodd" clip-rule="evenodd" d="M20.4 17.4C20.4 17.7313 20.1313 18 19.8 18H13.1999C12.8686 18 12.5999 17.7313 12.5999 17.4C12.5999 17.0687 12.8686 16.8 13.1999 16.8H19.8C20.1313 16.8 20.4 17.0687 20.4 17.4Z" fill="#008BD2"/>
<path fill-rule="evenodd" clip-rule="evenodd" d="M8.39984 2.39989C7.40571 2.39989 6.59982 3.20578 6.59982 4.19991H2.99979C1.34292 4.19991 -0.000244141 5.54307 -0.000244141 7.19993V18.6C-0.000244141 20.2569 1.34292 21.6001 2.99979 21.6001H21C22.6568 21.6001 24 20.2569 24 18.6V7.19993C24 5.54307 22.6568 4.19991 21 4.19991H17.3999C17.3999 3.20578 16.594 2.39989 15.5999 2.39989H8.39984ZM17.3999 5.39992C17.3999 6.39404 16.594 7.19993 15.5999 7.19993H8.39984C7.40571 7.19993 6.59982 6.39404 6.59982 5.39992H2.99979C2.00566 5.39992 1.19977 6.20581 1.19977 7.19993V18.6C1.19977 19.5941 2.00566 20.4001 2.99979 20.4001H21C21.9941 20.4001 22.8 19.5941 22.8 18.6V7.19993C22.8 6.20581 21.9941 5.39992 21 5.39992H17.3999ZM7.79984 4.19991C7.79984 3.86854 8.06847 3.5999 8.39984 3.5999H15.5999C15.9312 3.5999 16.1999 3.86854 16.1999 4.19991V5.39992C16.1999 5.73129 15.9312 5.99992 15.5999 5.99992H8.39984C8.06847 5.99992 7.79984 5.73129 7.79984 5.39992V4.19991Z" fill="#008BD2"/>
</g>
<defs>
<clipPath id="clip0_23_64">
<rect width="24" height="24" fill="white"/>
</clipPath>
</defs>
</svg>
