<svg width="24" height="24" viewBox="0 0 24 24" fill="none" xmlns="http://www.w3.org/2000/svg">
<path d="M12 0.705883C8.4706 0.705883 5.64707 3.52941 5.64707 7.05883V9.88236C4.44707 9.88236 3.52942 10.8 3.52942 12V21.1765C3.52942 22.3765 4.44707 23.2941 5.64707 23.2941H18.353C19.553 23.2941 20.4706 22.3765 20.4706 21.1765V12C20.4706 10.8 19.553 9.88236 18.353 9.88236V7.05883C18.353 3.52941 15.5294 0.705883 12 0.705883ZM19.0588 12V21.1765C19.0588 21.6 18.7765 21.8824 18.353 21.8824H5.64707C5.22354 21.8824 4.94118 21.6 4.94118 21.1765V12C4.94118 11.5765 5.22354 11.2941 5.64707 11.2941H6.35295H17.6471H18.353C18.7765 11.2941 19.0588 11.5765 19.0588 12ZM7.05883 9.88236V7.05883C7.05883 4.30589 9.24707 2.11765 12 2.11765C14.753 2.11765 16.9412 4.30589 16.9412 7.05883V9.88236H7.05883Z" fill="#008BD2"/>
<path d="M12 13.4118C10.8 13.4118 9.88235 14.3294 9.88235 15.5294C9.88235 16.447 10.4471 17.2235 11.2941 17.5059V19.0588C11.2941 19.4823 11.5765 19.7647 12 19.7647C12.4235 19.7647 12.7059 19.4823 12.7059 19.0588V17.5059C13.5529 17.2235 14.1176 16.447 14.1176 15.5294C14.1176 14.3294 13.2 13.4118 12 13.4118ZM12 16.2353C11.5765 16.2353 11.2941 15.9529 11.2941 15.5294C11.2941 15.1059 11.5765 14.8235 12 14.8235C12.4235 14.8235 12.7059 15.1059 12.7059 15.5294C12.7059 15.9529 12.4235 16.2353 12 16.2353Z" fill="#008BD2"/>
</svg>
