<svg width="23" height="25" viewBox="0 0 23 25" fill="none" xmlns="http://www.w3.org/2000/svg">
<path d="M20.2518 0.5H19.2199C18.7663 0.5 18.7663 1.20323 19.2199 1.20323H20.2518C21.3174 1.20323 22.1844 2.06707 22.1844 3.12885V11.2662C22.1844 12.328 21.3174 13.1919 20.2518 13.1919H19.0815C19.0042 13.1919 18.9292 13.2173 18.8678 13.2642L16.7204 14.9069V13.5435C16.7204 13.3493 16.563 13.1919 16.3687 13.1919H12.0894C11.7389 13.1919 11.4021 13.0994 11.1051 12.9235V8.97646C11.1051 8.23713 10.7285 7.58393 10.1567 7.19748V3.12885C10.1567 2.06707 11.0237 1.20323 12.0894 1.20323H17.0165C17.47 1.20323 17.47 0.5 17.0165 0.5H12.0894C10.6359 0.5 9.45349 1.67931 9.45349 3.12885V6.88844C9.2925 6.85 9.12475 6.82904 8.95214 6.82904H2.51545C1.32836 6.82904 0.362549 7.79237 0.362549 8.97646V9.73571C0.362549 10.1892 1.06578 10.1892 1.06578 9.73571V8.97646C1.06578 8.18013 1.71607 7.53227 2.51545 7.53227H8.95218C9.75156 7.53227 10.4019 8.18013 10.4019 8.97646V13.0635C10.3977 13.0946 10.3979 13.1258 10.4019 13.1566V15.3935C10.4019 15.4377 10.3992 15.4817 10.3952 15.5255H9.67013C8.87112 15.5255 8.20503 16.1022 8.06691 16.8601C8.03494 16.8721 8.00423 16.889 7.97577 16.9109L6.40313 18.1252V17.1893C6.40313 16.9951 6.24574 16.8376 6.05151 16.8376H2.51545C1.71607 16.8376 1.06578 16.1898 1.06578 15.3935V11.8454C1.06578 11.3919 0.362549 11.3919 0.362549 11.8454V15.3935C0.362549 16.5776 1.32836 17.5409 2.51545 17.5409H5.69995V18.841C5.69995 19.123 6.04242 19.2922 6.26646 19.1193L8.04024 17.7497V21.7054C8.04024 22.602 8.77145 23.3314 9.67018 23.3314H11.8279V24.1519C11.8279 24.4338 12.1704 24.6032 12.3944 24.4302L13.8175 23.3314H14.238C15.1367 23.3314 15.8679 22.6019 15.8679 21.7054V21.0811C15.8679 20.6276 15.1647 20.6276 15.1647 21.0811V21.7054C15.1647 22.2142 14.749 22.6282 14.238 22.6282H13.6976C13.6198 22.6282 13.5442 22.6539 13.4827 22.7014L12.5311 23.4361V22.9797C12.5311 22.7855 12.3737 22.6281 12.1795 22.6281H9.67013C9.15917 22.6281 8.74342 22.2141 8.74342 21.7053V17.1515C8.74342 16.6427 9.15912 16.2287 9.67013 16.2287H14.238C14.7489 16.2287 15.1647 16.6427 15.1647 17.1515V18.8777C15.1647 19.3312 15.8679 19.3312 15.8679 18.8777V17.1516C15.8679 16.255 15.1367 15.5256 14.238 15.5256H11.1011C11.1038 15.4816 11.1051 13.7057 11.1051 13.7057C11.4152 13.8304 11.7476 13.8952 12.0894 13.8952H16.0172V15.6185C16.0172 15.8999 16.3582 16.0693 16.5824 15.8978L19.2006 13.8952H20.2518C21.7052 13.8952 22.8876 12.7158 22.8876 11.2663V3.12885C22.8876 1.67931 21.7052 0.5 20.2518 0.5V0.5Z" fill="#777777"/>
<path d="M17.049 3.09782C16.6026 2.98385 16.1476 3.33658 16.1476 3.7979C16.1476 4.30193 15.9639 4.78767 15.6307 5.1654L14.6619 6.26163C14.5992 6.16538 14.4908 6.10167 14.3673 6.10167H12.4761C12.2819 6.10167 12.1245 6.2591 12.1245 6.45328V10.7085C12.1245 10.9027 12.2819 11.0601 12.4761 11.0601H14.3673C14.5094 11.0601 14.6315 10.9757 14.687 10.8545C15.0699 11.0884 15.5135 11.2149 15.965 11.2149H19.3073C19.818 11.2149 20.2393 10.7717 20.2154 10.2623C20.2047 10.0367 20.2164 7.00752 20.2164 6.94025C20.2164 6.43899 19.8085 6.03111 19.3083 6.03111L17.5703 6.02591L17.6422 5.8555C17.9711 5.07665 17.9169 4.17352 17.4975 3.43949C17.3996 3.268 17.2403 3.14671 17.049 3.09782C17.2403 3.14671 16.8577 3.04896 17.049 3.09782C17.2403 3.14671 16.6026 2.98385 17.049 3.09782ZM14.0157 10.3569H12.8277V6.8049H14.0157V10.3569ZM19.3073 6.73429C19.4208 6.73429 19.5132 6.82665 19.5132 6.9402C19.5132 7.0071 19.5125 7.18867 19.5115 7.43485C19.5063 8.79404 19.5029 10.0813 19.5129 10.2953C19.5166 10.3725 19.479 10.424 19.4563 10.4478C19.417 10.489 19.3641 10.5116 19.3073 10.5116H15.965C15.5666 10.5116 15.1767 10.3735 14.867 10.1229L14.719 10.003V7.259L16.1578 5.63084C16.6047 5.12433 16.8509 4.47337 16.8509 3.79785C16.8509 3.77798 16.878 3.77282 16.887 3.78829C17.1984 4.3332 17.2385 5.00365 16.9944 5.58185L16.7169 6.23908C16.6711 6.34752 16.6826 6.47162 16.7475 6.56979C16.8124 6.66796 16.9221 6.72712 17.0397 6.7275L19.3073 6.73429Z" fill="#777777"/>
<path d="M3.37334 12.7126C3.17911 12.7126 3.02173 12.87 3.02173 13.0642C3.02173 13.2584 3.17911 13.4158 3.37334 13.4158H4.4098L4.21618 14.5869C4.18449 14.7784 4.31417 14.9595 4.50572 14.9912C4.52518 14.9944 4.54445 14.9959 4.56348 14.9959C4.73244 14.9959 4.88148 14.8738 4.90999 14.7016L5.12255 13.4159H5.97078L5.77716 14.5869C5.74547 14.7785 5.87514 14.9595 6.0667 14.9912C6.08616 14.9944 6.10542 14.996 6.12446 14.996C6.29342 14.996 6.44246 14.8739 6.47096 14.7017L6.68352 13.4159H8.09434C8.28857 13.4159 8.44595 13.2585 8.44595 13.0643C8.44595 12.8701 8.28857 12.7127 8.09434 12.7127H6.79979L6.94161 11.8549H8.09434C8.28857 11.8549 8.44595 11.6975 8.44595 11.5033C8.44595 11.3092 8.28857 11.1517 8.09434 11.1517H7.05787L7.2515 9.98066C7.28319 9.7891 7.15351 9.60809 6.96195 9.5764C6.77016 9.54462 6.58939 9.67438 6.55769 9.86594L6.34513 11.1517H5.4969L5.69052 9.98062C5.72221 9.78906 5.59254 9.60805 5.40098 9.57635C5.20895 9.54457 5.02846 9.67434 4.99672 9.8659L4.78416 11.1516H3.37334C3.17911 11.1516 3.02173 11.3091 3.02173 11.5032C3.02173 11.6974 3.17911 11.8549 3.37334 11.8549H4.66789L4.52607 12.7126H3.37334ZM5.38068 11.8549H6.22891L6.08709 12.7126H5.23886L5.38068 11.8549Z" fill="#777777"/>
<path d="M11.9499 18.043C11.666 17.8092 11.2883 17.717 10.9094 17.8091C10.4238 17.927 9.93384 18.3809 9.93384 19.1291C9.93384 19.5948 10.1038 19.999 10.4534 20.3649C10.7389 20.6638 11.151 20.948 11.7895 21.2864C11.841 21.3138 11.8976 21.3274 11.9542 21.3274C12.0107 21.3274 12.0673 21.3138 12.1189 21.2864C13.2327 20.696 13.9744 20.1031 13.9744 19.1291C13.9744 18.3769 13.4671 17.9276 12.9642 17.8161C12.5865 17.7322 12.2202 17.8212 11.9499 18.043ZM13.2712 19.1291C13.2712 19.6545 12.9227 20.043 11.9541 20.5762C10.9855 20.0429 10.637 19.6544 10.637 19.1291C10.637 18.7382 10.8634 18.5439 11.0752 18.4925C11.1143 18.483 11.1561 18.4777 11.1991 18.4777C11.3584 18.4777 11.5336 18.5513 11.6416 18.7607C11.7032 18.8799 11.8276 18.9537 11.9611 18.951C12.0951 18.9483 12.216 18.8696 12.2727 18.7481C12.3865 18.5042 12.6258 18.4613 12.8118 18.5026C13.0339 18.5518 13.2712 18.7423 13.2712 19.1291Z" fill="#777777"/>
</svg>
