<svg width="24" height="24" viewBox="0 0 24 24" fill="none" xmlns="http://www.w3.org/2000/svg">
<path d="M23.9836 14.6657L23.1174 11.4857C23.062 11.2824 22.8774 11.1414 22.6667 11.1414H20.7494C20.8803 10.6784 21.0202 10.2174 21.1589 9.76115C21.389 9.00411 21.6269 8.22128 21.8228 7.43518L21.9298 7.00555C21.9612 6.87972 21.9389 6.7466 21.8681 6.63787C21.7974 6.52913 21.6847 6.45477 21.557 6.43254L21.1209 6.3564C15.0689 5.30014 8.93159 5.30014 2.87951 6.3564L2.44335 6.43254C2.31556 6.45477 2.2029 6.52922 2.13209 6.63787C2.06137 6.7466 2.03905 6.87982 2.07043 7.00565L2.17749 7.43527C2.37348 8.22128 2.61141 9.00411 2.8414 9.76115C2.98003 10.2175 3.11987 10.6785 3.25084 11.1415H1.33338C1.12272 11.1415 0.938133 11.2825 0.882737 11.4858L0.016579 14.6658C-0.0203205 14.801 0.00555589 14.9456 0.0869216 15.0597C1.5942 17.1736 4.04404 18.4356 6.64027 18.4356H7.86665C8.12466 18.4356 8.33373 18.2265 8.33373 17.9685V15.2556H15.6664V17.9685C15.6664 18.2265 15.8754 18.4356 16.1334 18.4356H17.3598C19.956 18.4356 22.406 17.1736 23.9133 15.0597C23.9946 14.9457 24.0204 14.801 23.9836 14.6657ZM20.9019 7.26665C20.7142 8.011 20.4859 8.76235 20.2649 9.48959C19.7872 11.0617 19.294 12.6867 19.1851 14.3215H4.81501C4.70599 12.6868 4.21285 11.0617 3.73521 9.48959C3.51419 8.76235 3.28578 8.011 3.0982 7.26665C9.00577 6.24225 14.9943 6.24234 20.9019 7.26665ZM0.977087 14.6934L1.69023 12.0757H3.49886C3.69214 12.8641 3.83862 13.6533 3.88654 14.4306L3.91036 14.8173C3.91774 14.9386 3.97221 15.0521 4.06198 15.1339L6.66045 17.5016H6.64018C4.41827 17.5015 2.31771 16.4558 0.977087 14.6934ZM7.39947 16.9111L5.58271 15.2556H7.39947V16.9111ZM18.4173 15.2556L16.6004 16.9111V15.2556H18.4173ZM17.3597 17.5015H17.3394L19.938 15.1338C20.0278 15.0521 20.0823 14.9385 20.0896 14.8172L20.1135 14.4305C20.1614 13.6532 20.3079 12.864 20.5011 12.0756H22.3097L23.0228 14.6934C21.6823 16.4558 19.5816 17.5015 17.3597 17.5015Z" fill="#008BD2"/>
</svg>
