<svg width="32" height="32" viewBox="0 0 32 32" fill="none" xmlns="http://www.w3.org/2000/svg">
<g filter="url(#filter0_d_73_3096)">
<path d="M26.5 12.375H17.5C16.8798 12.375 16.375 12.8798 16.375 13.5V22.5C16.375 23.1202 16.8798 23.625 17.5 23.625H26.5C27.1202 23.625 27.625 23.1202 27.625 22.5V13.5C27.625 12.8798 27.1202 12.375 26.5 12.375ZM26.875 22.5C26.875 22.707 26.707 22.875 26.5 22.875H17.5C17.293 22.875 17.125 22.707 17.125 22.5V13.5C17.125 13.293 17.293 13.125 17.5 13.125H26.5C26.707 13.125 26.875 13.293 26.875 13.5V22.5Z" fill="#008BD2"/>
<path d="M17.875 16.125H26.125V13.875H17.875V16.125ZM18.625 14.625H25.375V15.375H18.625V14.625Z" fill="#008BD2"/>
<path d="M26.5 0.375H17.5C16.8798 0.375 16.375 0.87975 16.375 1.5V10.5C16.375 11.1202 16.8798 11.625 17.5 11.625H26.5C27.1202 11.625 27.625 11.1202 27.625 10.5V1.5C27.625 0.87975 27.1202 0.375 26.5 0.375ZM26.875 10.5C26.875 10.707 26.707 10.875 26.5 10.875H17.5C17.293 10.875 17.125 10.707 17.125 10.5V1.5C17.125 1.293 17.293 1.125 17.5 1.125H26.5C26.707 1.125 26.875 1.293 26.875 1.5V10.5Z" fill="#008BD2"/>
<path d="M26.125 1.875H17.875V4.125H26.125V1.875ZM25.375 3.375H18.625V2.625H25.375V3.375Z" fill="#008BD2"/>
<path d="M14.5 12.375H5.5C4.87975 12.375 4.375 12.8798 4.375 13.5V22.5C4.375 23.1202 4.87975 23.625 5.5 23.625H14.5C15.1202 23.625 15.625 23.1202 15.625 22.5V13.5C15.625 12.8798 15.1202 12.375 14.5 12.375ZM14.875 22.5C14.875 22.707 14.707 22.875 14.5 22.875H5.5C5.293 22.875 5.125 22.707 5.125 22.5V13.5C5.125 13.293 5.293 13.125 5.5 13.125H14.5C14.707 13.125 14.875 13.293 14.875 13.5V22.5Z" fill="#008BD2"/>
<path d="M5.875 16.125H14.125V13.875H5.875V16.125ZM6.625 14.625H13.375V15.375H6.625V14.625Z" fill="#008BD2"/>
<path d="M14.5 0.375H5.5C4.87975 0.375 4.375 0.87975 4.375 1.5V10.5C4.375 11.1202 4.87975 11.625 5.5 11.625H14.5C15.1202 11.625 15.625 11.1202 15.625 10.5V1.5C15.625 0.87975 15.1202 0.375 14.5 0.375ZM14.875 10.5C14.875 10.707 14.707 10.875 14.5 10.875H5.5C5.293 10.875 5.125 10.707 5.125 10.5V1.5C5.125 1.293 5.293 1.125 5.5 1.125H14.5C14.707 1.125 14.875 1.293 14.875 1.5V10.5Z" fill="#008BD2"/>
<path d="M5.875 4.125H14.125V1.875H5.875V4.125ZM6.625 2.625H13.375V3.375H6.625V2.625Z" fill="#008BD2"/>
<path d="M24.4176 19.1644L19.9176 16.9144C19.801 16.8566 19.663 16.8619 19.5527 16.9309C19.4425 16.9995 19.375 17.1199 19.375 17.25V21.75C19.375 21.8801 19.4425 22.0005 19.5531 22.0691C19.6131 22.1063 19.6814 22.125 19.75 22.125C19.8074 22.125 19.8647 22.1119 19.9176 22.0856L24.4176 19.8356C24.5447 19.7719 24.625 19.6421 24.625 19.5C24.625 19.3579 24.5447 19.2281 24.4176 19.1644ZM20.125 21.1433V17.8568L23.4115 19.5L20.125 21.1433Z" fill="#008BD2"/>
<path d="M8.125 6V7.944C8.00725 7.902 7.882 7.875 7.75 7.875C7.12975 7.875 6.625 8.37975 6.625 9C6.625 9.62025 7.12975 10.125 7.75 10.125C8.37025 10.125 8.875 9.62025 8.875 9V7.125H11.125V6.375H8.875V6C8.875 5.793 9.043 5.625 9.25 5.625H11.125V4.875H9.25C8.62975 4.875 8.125 5.37975 8.125 6ZM7.75 9.375C7.543 9.375 7.375 9.207 7.375 9C7.375 8.793 7.543 8.625 7.75 8.625C7.957 8.625 8.125 8.793 8.125 9C8.125 9.207 7.957 9.375 7.75 9.375Z" fill="#008BD2"/>
<path d="M19 7.125C19.6202 7.125 20.125 6.62025 20.125 6C20.125 5.37975 19.6202 4.875 19 4.875C18.3798 4.875 17.875 5.37975 17.875 6C17.875 6.62025 18.3798 7.125 19 7.125ZM19 5.625C19.207 5.625 19.375 5.793 19.375 6C19.375 6.207 19.207 6.375 19 6.375C18.793 6.375 18.625 6.207 18.625 6C18.625 5.793 18.793 5.625 19 5.625Z" fill="#008BD2"/>
<path d="M23.5001 5.625C22.8903 5.625 22.3499 5.991 22.1231 6.55725L21.5883 7.89375L21.4991 7.75988C21.2339 7.36238 20.7903 7.125 20.3126 7.125C19.8348 7.125 19.3912 7.36238 19.1261 7.75988L17.5496 10.125H26.3039L24.8771 6.55688C24.6502 5.991 24.1098 5.625 23.5001 5.625ZM20.9962 9.375H18.9506L19.7501 8.17612C19.8757 7.9875 20.0861 7.875 20.3126 7.875C20.5391 7.875 20.7494 7.9875 20.8751 8.17612L21.2504 8.73938L20.9962 9.375ZM21.8039 9.375L22.8198 6.83588C22.9316 6.55575 23.1986 6.375 23.5001 6.375C23.8016 6.375 24.0686 6.55575 24.1803 6.83588L25.1962 9.375H21.8039Z" fill="#008BD2"/>
<path d="M5.875 16.875H7.375V17.625H5.875V16.875Z" fill="#008BD2"/>
<path d="M8.125 16.875H14.125V17.625H8.125V16.875Z" fill="#008BD2"/>
<path d="M5.875 18.375H14.125V19.125H5.875V18.375Z" fill="#008BD2"/>
<path d="M5.875 19.875H8.875V20.625H5.875V19.875Z" fill="#008BD2"/>
<path d="M9.625 19.875H14.125V20.625H9.625V19.875Z" fill="#008BD2"/>
<path d="M5.875 21.375H14.125V22.125H5.875V21.375Z" fill="#008BD2"/>
</g>
<defs>
<filter id="filter0_d_73_3096" x="0" y="0" width="32" height="32" filterUnits="userSpaceOnUse" color-interpolation-filters="sRGB">
<feFlood flood-opacity="0" result="BackgroundImageFix"/>
<feColorMatrix in="SourceAlpha" type="matrix" values="0 0 0 0 0 0 0 0 0 0 0 0 0 0 0 0 0 0 127 0" result="hardAlpha"/>
<feOffset dy="4"/>
<feGaussianBlur stdDeviation="2"/>
<feComposite in2="hardAlpha" operator="out"/>
<feColorMatrix type="matrix" values="0 0 0 0 0 0 0 0 0 0 0 0 0 0 0 0 0 0 0.25 0"/>
<feBlend mode="normal" in2="BackgroundImageFix" result="effect1_dropShadow_73_3096"/>
<feBlend mode="normal" in="SourceGraphic" in2="effect1_dropShadow_73_3096" result="shape"/>
</filter>
</defs>
</svg>
